<svg xmlns="http://www.w3.org/2000/svg" xmlns:xlink="http://www.w3.org/1999/xlink" width="18.485" height="22.397" viewBox="0 0 18.485 22.397">
  <defs>
    <clipPath id="clip-path">
      <rect id="사각형_2746" data-name="사각형 2746" width="18.485" height="22.397" transform="translate(0 0)" fill="#303030" stroke="#303030" stroke-width="1"/>
    </clipPath>
  </defs>
  <g id="그룹_441" data-name="그룹 441" clip-path="url(#clip-path)">
    <g id="빼기_26" data-name="빼기 26" transform="translate(3.246 3.862)" stroke-miterlimit="10">
      <path d="M 5.996013164520264 13.06245040893555 L 2.463636636734009 9.528789520263672 C 2.232146739959717 9.297490119934082 2.023376703262329 9.043100357055664 1.842696666717529 8.772259712219238 C 1.661451458930969 8.500761032104492 1.505664229393005 8.210201263427734 1.379461884498596 7.908335208892822 C 1.254313468933105 7.603162288665771 1.159173846244812 7.288264751434326 1.096676707267761 6.972310066223145 C 1.032296776771545 6.652599811553955 0.9999967217445374 6.325210094451904 0.9999967217445374 5.995870113372803 C 0.9999967217445374 5.665430068969727 1.032256722450256 5.338260173797607 1.095876693725586 5.023449897766113 C 1.159326672554016 4.702730178833008 1.254876732826233 4.386879920959473 1.38068675994873 4.080639839172363 C 1.503786683082581 3.784120082855225 1.659526705741882 3.493489980697632 1.842186689376831 3.220219850540161 C 2.023316621780396 2.948920011520386 2.23224663734436 2.694329977035522 2.463516712188721 2.46304988861084 C 2.695046663284302 2.231519937515259 2.950076818466187 2.021879911422729 3.221496820449829 1.83994996547699 C 3.488536834716797 1.661499977111816 3.77946662902832 1.506369948387146 4.085046768188477 1.379639983177185 C 4.382926940917969 1.255939960479736 4.69879674911499 1.160040020942688 5.02428674697876 1.094429969787598 C 5.339576721191406 1.031989932060242 5.667576789855957 0.9999999403953552 5.995866775512695 0.9999999403953552 C 6.325396537780762 0.9999999403953552 6.653766632080078 1.031979918479919 6.971856594085693 1.095049977302551 C 7.294956684112549 1.160179972648621 7.610696792602539 1.256029963493347 7.907206535339355 1.379299998283386 C 8.210236549377441 1.50478994846344 8.500926971435547 1.659999966621399 8.772506713867188 1.841169953346252 C 9.043646812438965 2.022909879684448 9.299306869506836 2.232749938964844 9.530556678771973 2.463629961013794 C 9.760416984558105 2.693690061569214 9.969626426696777 2.948629856109619 10.15149688720703 3.22052001953125 C 10.33313655853271 3.492429971694946 10.4888162612915 3.783210039138794 10.61384677886963 4.084229946136475 C 10.73873710632324 4.38824987411499 10.83443641662598 4.704100131988525 10.89681625366211 5.019420146942139 C 10.96069717407227 5.341919898986816 10.99305629730225 5.670360088348389 10.99305629730225 5.995870113372803 C 10.99305629730225 6.320459842681885 10.96065711975098 6.6490797996521 10.89675712585449 6.97258996963501 C 10.8346471786499 7.286598682403564 10.73930835723877 7.601625442504883 10.61344146728516 7.908704280853271 C 10.48722267150879 8.210748672485352 10.33158016204834 8.501269340515137 10.15079689025879 8.772270202636719 C 9.970246315002441 9.042550086975098 9.761166572570801 9.297309875488281 9.529706954956055 9.528940200805664 L 5.996013164520264 13.06245040893555 Z M 5.995866775512695 2.539849996566772 C 5.551566600799561 2.539849996566772 5.11557674407959 2.626299858093262 4.700026512145996 2.796809911727905 L 4.697466850280762 2.797859907150269 L 4.694906711578369 2.798919916152954 C 4.283656597137451 2.970329999923706 3.914556741714478 3.217030048370361 3.597866773605347 3.532180070877075 C 3.27873682975769 3.852869987487793 3.031946659088135 4.222159862518311 2.860916614532471 4.633249759674072 L 2.859956741333008 4.635570049285889 L 2.858996629714966 4.637889862060547 C 2.688526630401611 5.053500175476074 2.602096796035767 5.489890098571777 2.602096796035767 5.93494987487793 C 2.602096796035767 6.379950046539307 2.688696622848511 6.815939903259277 2.859496831893921 7.230800151824951 C 3.031736612319946 7.646349906921387 3.278926610946655 8.016739845275879 3.595096826553345 8.333840370178223 C 3.914556741714478 8.651760101318359 4.283656597137451 8.898460388183594 4.694906711578369 9.069869995117188 C 5.113966941833496 9.242349624633789 5.550286769866943 9.328940391540527 5.995866775512695 9.328940391540527 C 6.44331693649292 9.328940391540527 6.880136489868164 9.24213981628418 7.294176578521729 9.070969581604004 C 7.707626819610596 8.899479866027832 8.077706336975098 8.652549743652344 8.395196914672852 8.336600303649902 C 8.713336944580078 8.01753044128418 8.960476875305176 7.647629737854004 9.13249683380127 7.234419822692871 C 9.304466247558594 6.817039966583252 9.390956878662109 6.380970001220703 9.390956878662109 5.93494987487793 C 9.390956878662109 5.489180088043213 9.304666519165039 5.05279016494751 9.134496688842773 4.637889862060547 L 9.133397102355957 4.635220050811768 L 9.13228702545166 4.632559776306152 C 8.960806846618652 4.221270084381104 8.7138671875 3.852099895477295 8.398306846618652 3.535300016403198 C 8.078267097473145 3.216480016708374 7.70803689956665 2.969429969787598 7.29513692855835 2.798219919204712 C 6.879296779632568 2.626569986343384 6.442656517028809 2.539849996566772 5.995866775512695 2.539849996566772 Z" stroke="none"/>
      <path d="M 5.996156692504883 11.64813327789307 L 7.630760669708252 10.0136137008667 C 7.108481407165527 10.22287464141846 6.558708667755127 10.32894039154053 5.995866775512695 10.32894039154053 C 5.435024261474609 10.32894039154053 4.885950088500977 10.22314262390137 4.362998962402344 10.01437854766846 L 5.996156692504883 11.64813327789307 M 5.995866775512695 14.47677993774414 L 1.756396770477295 10.2357702255249 C 1.478406667709351 9.958000183105469 1.227676749229431 9.652290344238281 1.010816693305969 9.32721996307373 C 0.7930867075920105 9.001059532165527 0.6065767407417297 8.652680397033691 0.4557067155838013 8.291330337524414 C 0.3052667081356049 7.925139904022217 0.1909067183732986 7.546629905700684 0.1156867146492004 7.166359901428223 C 0.03870671987533569 6.784110069274902 -3.281860244896961e-06 6.390429973602295 -3.281860244896961e-06 5.995870113372803 C -3.281860244896961e-06 5.600419998168945 0.03870671987533569 5.206299781799316 0.1156867146492004 4.825369834899902 C 0.1909067183732986 4.445109844207764 0.3052667081356049 4.06682014465332 0.4557067155838013 3.700629949569702 C 0.6052567362785339 3.340369939804077 0.7922067046165466 2.991559982299805 1.010816693305969 2.664510011672974 C 1.227676749229431 2.339669942855835 1.478406667709351 2.033959865570068 1.756396770477295 1.755959987640381 C 2.032636642456055 1.479719996452332 2.3379065990448 1.228339910507202 2.664736747741699 1.00927996635437 C 2.988916635513306 0.7926499843597412 3.338176727294922 0.6067999601364136 3.70194673538208 0.4559299647808075 C 4.059996604919434 0.3072499632835388 4.438286781311035 0.1924399733543396 4.826696872711182 0.1141499653458595 C 5.59465503692627 -0.0379503034055233 6.402705192565918 -0.03727126494050026 7.166356563568115 0.1141499653458595 C 7.554766654968262 0.1924399733543396 7.933496952056885 0.3072499632835388 8.291107177734375 0.4559299647808075 C 8.652246475219727 0.6054799556732178 9.001056671142578 0.7915499806404114 9.327446937561035 1.00927996635437 C 9.654266357421875 1.228339910507202 9.960416793823242 1.479719996452332 10.23709678649902 1.755959987640381 C 10.51332664489746 2.032419919967651 10.76449680328369 2.338350057601929 10.98267650604248 2.664510011672974 C 11.20128631591797 2.991780042648315 11.38779640197754 3.340590000152588 11.53734683990479 3.700629949569702 C 11.68778705596924 4.06682014465332 11.80258655548096 4.445109844207764 11.87780666351318 4.825369834899902 C 11.95434665679932 5.211800098419189 11.99305629730225 5.605480194091797 11.99305629730225 5.995870113372803 C 11.99305629730225 6.38493013381958 11.95434665679932 6.778840065002441 11.87780666351318 7.166359901428223 C 11.80258655548096 7.546629905700684 11.68778705596924 7.924920082092285 11.53734683990479 8.291330337524414 C 11.38647651672363 8.652899742126465 11.19996643066406 9.001500129699707 10.98267650604248 9.32721996307373 C 10.76449680328369 9.653829574584961 10.51332664489746 9.959320068359375 10.23709678649902 10.2357702255249 L 5.995866775512695 14.47677993774414 Z M 5.995866775512695 3.539849996566772 C 5.682236671447754 3.539849996566772 5.373886585235596 3.601219892501831 5.079616546630859 3.721960067749023 C 4.788866519927979 3.843139886856079 4.527576923370361 4.017769813537598 4.30324649810791 4.241010189056396 C 4.07979679107666 4.465559959411621 3.905166625976562 4.726620197296143 3.784196615219116 5.017379760742188 C 3.663676738739014 5.311210155487061 3.602096796035767 5.619999885559082 3.602096796035767 5.93494987487793 C 3.602096796035767 6.249670028686523 3.663676738739014 6.557360172271729 3.784196615219116 6.850090026855469 C 3.905166625976562 7.141950130462646 4.07979679107666 7.403669834136963 4.30324649810791 7.627779960632324 C 4.527576923370361 7.851019859313965 4.788866519927979 8.025650024414062 5.079616546630859 8.146829605102539 C 5.373006820678711 8.267580032348633 5.681356906890869 8.328940391540527 5.995866775512695 8.328940391540527 C 6.311696529388428 8.328940391540527 6.620046615600586 8.267580032348633 6.912116527557373 8.146829605102539 C 7.203746795654297 8.025870323181152 7.465036869049072 7.851459980010986 7.689806938171387 7.627779960632324 C 7.913696765899658 7.4032301902771 8.087886810302734 7.141729831695557 8.209297180175781 6.850090026855469 C 8.329816818237305 6.55757999420166 8.390956878662109 6.249670028686523 8.390956878662109 5.93494987487793 C 8.390956878662109 5.61978006362915 8.329816818237305 5.311210155487061 8.209297180175781 5.017379760742188 C 8.087886810302734 4.726180076599121 7.912816524505615 4.464900016784668 7.689806938171387 4.241010189056396 C 7.465036869049072 4.017109870910645 7.203306674957275 3.842700004577637 6.912116527557373 3.721960067749023 C 6.619606494903564 3.601219892501831 6.311256885528564 3.539849996566772 5.995866775512695 3.539849996566772 Z" stroke="none" fill="#000"/>
    </g>
  </g>
</svg>
