<svg xmlns="http://www.w3.org/2000/svg" xmlns:xlink="http://www.w3.org/1999/xlink" width="15.461" height="18.733" viewBox="0 0 15.461 18.733">
  <defs>
    <clipPath id="clip-path">
      <rect id="사각형_2743" data-name="사각형 2743" width="15.461" height="18.733" transform="translate(0 0)" fill="none" stroke="#2c84ee" stroke-width="1"/>
    </clipPath>
  </defs>
  <g id="그룹_404" data-name="그룹 404" transform="translate(0 0)" clip-path="url(#clip-path)">
    <g id="빼기_25" data-name="빼기 25" transform="translate(2.715 3.23)" fill="#fff">
      <path d="M 5.01505708694458 10.69397830963135 L 2.176284790039062 7.854173183441162 C 1.990214824676514 7.668252944946289 1.822474837303162 7.463862895965576 1.677314758300781 7.246273040771484 C 1.531638622283936 7.028047561645508 1.406401395797729 6.794495582580566 1.304922699928284 6.551856517791748 C 1.204365372657776 6.30655574798584 1.127931833267212 6.0535569190979 1.077744841575623 5.799842834472656 C 1.025934815406799 5.542532920837402 1.000004768371582 5.2795729637146 1.000004768371582 5.014913082122803 C 1.000004768371582 4.749382972717285 1.02589476108551 4.486632823944092 1.076944828033447 4.233973026275635 C 1.128094792366028 3.975472927093506 1.20493483543396 3.72152304649353 1.306134819984436 3.475193023681641 C 1.404794812202454 3.237562894821167 1.529974818229675 3.003973007202148 1.676804780960083 2.784312963485718 C 1.82242476940155 2.566192865371704 1.990314841270447 2.361623048782349 2.176154851913452 2.175782918930054 C 2.362314701080322 1.989612936973572 2.567334890365601 1.821072936058044 2.785514831542969 1.674842953681946 C 2.999814748764038 1.531633019447327 3.233644723892212 1.406962990760803 3.479394674301147 1.305032968521118 C 3.718784809112549 1.205632925033569 3.972764730453491 1.128543019294739 4.234644889831543 1.075752973556519 C 4.487334728240967 1.025712966918945 4.750984668731689 1.000002980232239 5.014914989471436 1.000002980232239 C 5.27986478805542 1.000002980232239 5.543814659118652 1.025702953338623 5.799424648284912 1.076382994651794 C 6.058734893798828 1.128662943840027 6.31258487701416 1.205693006515503 6.550764560699463 1.304713010787964 C 6.794604778289795 1.405702948570251 7.028244972229004 1.530452966690063 7.246444702148438 1.676023006439209 C 7.464184761047363 1.821962952613831 7.669764995574951 1.990692973136902 7.855714797973633 2.176342964172363 C 8.040314674377441 2.361103057861328 8.208475112915039 2.566022872924805 8.35466480255127 2.784573078155518 C 8.500615119934082 3.003062963485718 8.625764846801758 3.23680305480957 8.72629451751709 3.478802919387817 C 8.826475143432617 3.722682952880859 8.903434753417969 3.976633071899414 8.953544616699219 4.229952812194824 C 9.004904747009277 4.489273071289062 9.030924797058105 4.753283023834229 9.030924797058105 5.014913082122803 C 9.030924797058105 5.275803089141846 9.004875183105469 5.539982795715332 8.953484535217285 5.800122737884521 C 8.903606414794922 6.052324295043945 8.826959609985352 6.305549144744873 8.7257080078125 6.552597999572754 C 8.624223709106445 6.795267105102539 8.499156951904297 7.028659820556641 8.353974342346191 7.246293067932129 C 8.208954811096191 7.463373184204102 8.040914535522461 7.6681227684021 7.854854583740234 7.85433292388916 L 5.01505708694458 10.69397830963135 Z M 5.014914989471436 1.960712909698486 C 4.621894836425781 1.960712909698486 4.236344814300537 2.037142992019653 3.868964672088623 2.187882900238037 L 3.866414785385132 2.1889328956604 L 3.863864898681641 2.189992904663086 C 3.500214815139771 2.341542959213257 3.173854827880859 2.559673070907593 2.893844842910767 2.838312864303589 C 2.611284732818604 3.122252941131592 2.393074750900269 3.448802947998047 2.241804838180542 3.812382936477661 L 2.240834712982178 3.814702987670898 L 2.239884853363037 3.817033052444458 C 2.089184761047363 4.184453010559082 2.012774705886841 4.570333003997803 2.012774705886841 4.963963031768799 C 2.012774705886841 5.357623100280762 2.089354753494263 5.743233203887939 2.240384817123413 6.110083103179932 C 2.392834901809692 6.477892875671387 2.611454725265503 6.805472850799561 2.891074895858765 7.085913181304932 C 3.173844814300537 7.367302894592285 3.500194787979126 7.585433006286621 3.863834857940674 7.737002849578857 C 4.234884738922119 7.88972282409668 4.620774745941162 7.966282844543457 5.014914989471436 7.966282844543457 C 5.410714626312256 7.966282844543457 5.797084808349609 7.88951301574707 6.163314819335938 7.738112926483154 C 6.529094696044922 7.586392879486084 6.856354713439941 7.368042945861816 7.1370849609375 7.088683128356934 C 7.418764591217041 6.806172847747803 7.637294769287109 6.479093074798584 7.78940486907959 6.113732814788818 C 7.941664695739746 5.744173049926758 8.018155097961426 5.358482837677002 8.018155097961426 4.963963031768799 C 8.018155097961426 4.569733142852783 7.941864967346191 4.183853149414062 7.791414737701416 3.817033052444458 L 7.790314674377441 3.814352989196777 L 7.789204597473145 3.811682939529419 C 7.63755464553833 3.447983026504517 7.419214725494385 3.121542930603027 7.140224933624268 2.841443061828613 C 6.856844902038574 2.55918288230896 6.529434680938721 2.340703010559082 6.1642746925354 2.189292907714844 C 5.7963547706604 2.037412881851196 5.410144805908203 1.960712909698486 5.014914989471436 1.960712909698486 Z" stroke="none"/>
      <path d="M 5.015206813812256 9.279660224914551 L 5.341811656951904 8.95307445526123 C 5.1254563331604 8.970640182495117 4.905303001403809 8.970682144165039 4.6887526512146 8.95308780670166 L 5.015206813812256 9.279660224914551 M 5.014914989471436 12.10830307006836 L 5.014174938201904 12.10757255554199 L 1.469044804573059 8.561153411865234 C 1.236524820327759 8.328812599182129 1.026824831962585 8.073122978210449 0.8454447984695435 7.801242828369141 C 0.6633347868919373 7.528442859649658 0.5073447823524475 7.237062931060791 0.3811547756195068 6.934823036193848 C 0.2553247809410095 6.628542900085449 0.1596747785806656 6.311963081359863 0.0967547819018364 5.993903160095215 C 0.0323747843503952 5.674202919006348 4.78271476822556e-06 5.34492301940918 4.78271476822556e-06 5.014913082122803 C 4.78271476822556e-06 4.684163093566895 0.0323747843503952 4.354523181915283 0.0967547819018364 4.035912990570068 C 0.1596747785806656 3.717863082885742 0.2553247809410095 3.401463031768799 0.3811547756195068 3.0951828956604 C 0.5062347650527954 2.793873071670532 0.6625947952270508 2.50212287902832 0.8454447984695435 2.228582859039307 C 1.026824831962585 1.956882953643799 1.236524820327759 1.70119297504425 1.469044804573059 1.46867299079895 C 1.700084805488586 1.237632989883423 1.955414772033691 1.02737295627594 2.228764772415161 0.8441629409790039 C 2.499914884567261 0.6629629731178284 2.792034864425659 0.5075229406356812 3.096284866333008 0.3813329637050629 C 3.395764827728271 0.2569829523563385 3.712164878845215 0.1609629690647125 4.037024974822998 0.09547296911478043 C 4.67933988571167 -0.03173122555017471 5.355192184448242 -0.03116411902010441 5.993904590606689 0.09547296911478043 C 6.318764686584473 0.1609629690647125 6.635534763336182 0.2569829523563385 6.93464469909668 0.3813329637050629 C 7.236694812774658 0.5064229369163513 7.528444766998291 0.6620429754257202 7.801424980163574 0.8441629409790039 C 8.074774742126465 1.02737295627594 8.330844879150391 1.237632989883423 8.562254905700684 1.46867299079895 C 8.793294906616211 1.699903011322021 9.003375053405762 1.955783009529114 9.185854911804199 2.228582859039307 C 9.368704795837402 2.502302885055542 9.524694442749023 2.794053077697754 9.649785041809082 3.0951828956604 C 9.775605201721191 3.401463031768799 9.871624946594238 3.717863082885742 9.934535026550293 4.035912990570068 C 9.998555183410645 4.359122753143311 10.03092479705811 4.688393115997314 10.03092479705811 5.014913082122803 C 10.03092479705811 5.340322971343994 9.998555183410645 5.669783115386963 9.934535026550293 5.993903160095215 C 9.871624946594238 6.311963081359863 9.775605201721191 6.628363132476807 9.649785041809082 6.934823036193848 C 9.523584365844727 7.237243175506592 9.367594718933105 7.528812885284424 9.185854911804199 7.801242828369141 C 9.003375053405762 8.074413299560547 8.793294906616211 8.329922676086426 8.562254905700684 8.561153411865234 L 5.014914989471436 12.10830307006836 Z M 5.014914989471436 2.960712909698486 C 4.752594947814941 2.960712909698486 4.494694709777832 3.012042999267578 4.248564720153809 3.113033056259155 C 4.005384922027588 3.214382886886597 3.786844730377197 3.360442876815796 3.599214792251587 3.547152996063232 C 3.412314891815186 3.734972953796387 3.266264677047729 3.953322887420654 3.165084838867188 4.196513175964355 C 3.064284801483154 4.442273139953613 3.012774705886841 4.70054292678833 3.012774705886841 4.963963031768799 C 3.012774705886841 5.227192878723145 3.064284801483154 5.484542846679688 3.165084838867188 5.729382991790771 C 3.266264677047729 5.973493099212646 3.412314891815186 6.192392826080322 3.599214792251587 6.379842758178711 C 3.786844730377197 6.566553115844727 4.005384922027588 6.712613105773926 4.248564720153809 6.813972949981689 C 4.493954658508301 6.914962768554688 4.751864910125732 6.966282844543457 5.014914989471436 6.966282844543457 C 5.279064655303955 6.966282844543457 5.536974906921387 6.914962768554688 5.781254768371582 6.813972949981689 C 6.025184631347656 6.712792873382568 6.243714809417725 6.566923141479492 6.43171501159668 6.379842758178711 C 6.618974685668945 6.192022800445557 6.764664649963379 5.973302841186523 6.866214752197266 5.729382991790771 C 6.967014789581299 5.484723091125488 7.018154621124268 5.227192878723145 7.018154621124268 4.963963031768799 C 7.018154621124268 4.700353145599365 6.967014789581299 4.442273139953613 6.866214752197266 4.196513175964355 C 6.764664649963379 3.952952861785889 6.618244647979736 3.734422922134399 6.43171501159668 3.547152996063232 C 6.243714809417725 3.359893083572388 6.024814605712891 3.214022874832153 5.781254768371582 3.113033056259155 C 5.536604881286621 3.012042999267578 5.278704643249512 2.960712909698486 5.014914989471436 2.960712909698486 Z" stroke="none" fill="#fff"/>
    </g>
  </g>
</svg>
