<svg xmlns="http://www.w3.org/2000/svg" width="41.587" height="34.61" viewBox="0 0 41.587 34.61">
  <path id="패스_127" data-name="패스 127" d="M135.676,80.635a2.88,2.88,0,0,0-3.146-3.145c-1.238-.01-2.477-.005-3.715,0a2.836,2.836,0,0,1-2.871-1.923c-.453-1.118-.947-2.219-1.415-3.331a2.482,2.482,0,0,0-2.486-1.657q-7.134.01-14.268,0a2.489,2.489,0,0,0-2.492,1.65c-.482,1.136-.991,2.262-1.454,3.406a2.786,2.786,0,0,1-2.813,1.873c-1.182,0-2.364,0-3.546,0-2.268.008-3.341,1.09-3.341,3.373,0,6.839.061,13.678-.033,20.516-.034,2.451,1.146,3.837,3.749,3.79,5.683-.1,11.369-.031,17.054-.031q8.823,0,17.646,0A2.869,2.869,0,0,0,135.677,102q.007-10.68,0-21.36m-15.9,12.774c-.73.034-1.463.035-2.193,0-.47-.022-.65.113-.624.607.038.729.028,1.463,0,2.193a2.052,2.052,0,0,1-4.1.015c-.032-.758-.03-1.519-.006-2.278.013-.4-.111-.55-.522-.536-.73.027-1.463.025-2.194,0a2.091,2.091,0,1,1,.032-4.173c.675-.015,1.352-.034,2.025.007.515.032.721-.124.66-.656a9.6,9.6,0,0,1-.008-1.1h.015c0-.393-.025-.789,0-1.18a2.048,2.048,0,0,1,4.084-.012c.049.785.042,1.575.016,2.361-.014.435.111.6.564.581.73-.032,1.463-.026,2.193,0a2.083,2.083,0,1,1,.059,4.165" transform="translate(-94.094 -70.576)" fill="#2b84ef"/>
</svg>
