<svg xmlns="http://www.w3.org/2000/svg" width="52" height="52" viewBox="0 0 52 52">
  <g id="그룹_189" data-name="그룹 189" transform="translate(-0.863 -0.483)">
    <g id="타원_25" data-name="타원 25" transform="translate(0.863 0.483)" fill="rgba(255,255,255,0.7)" stroke="#2c84ee" stroke-width="2">
      <circle cx="26" cy="26" r="26" stroke="none"/>
      <circle cx="26" cy="26" r="25" fill="none"/>
    </g>
    <path id="패스_164" data-name="패스 164" d="M123.719,77.742a2.052,2.052,0,0,0-2.242-2.241c-.882-.007-1.764,0-2.647,0a2.02,2.02,0,0,1-2.045-1.37c-.322-.8-.675-1.581-1.008-2.373a1.769,1.769,0,0,0-1.771-1.181q-5.083.007-10.165,0a1.773,1.773,0,0,0-1.775,1.176c-.343.81-.706,1.611-1.036,2.426a1.985,1.985,0,0,1-2,1.334c-.842,0-1.684,0-2.526,0a2.1,2.1,0,0,0-2.381,2.4c0,4.872.043,9.745-.024,14.616-.024,1.746.816,2.734,2.671,2.7,4.049-.073,8.1-.022,12.15-.022q6.286,0,12.571,0a2.044,2.044,0,0,0,2.232-2.247q.005-7.609,0-15.218m-11.329,9.1c-.52.024-1.043.025-1.562,0-.335-.015-.463.08-.445.433.027.519.02,1.042,0,1.562a1.462,1.462,0,0,1-2.923.01c-.023-.54-.021-1.082,0-1.623.009-.285-.079-.392-.372-.382-.52.019-1.042.018-1.563,0a1.49,1.49,0,1,1,.023-2.973c.481-.01.963-.024,1.442.005.367.023.514-.088.47-.467a6.849,6.849,0,0,1-.006-.781h.011c0-.28-.018-.562,0-.841a1.459,1.459,0,0,1,2.91-.009c.035.559.03,1.122.011,1.682-.01.31.079.428.4.414.52-.023,1.042-.018,1.563,0a1.484,1.484,0,1,1,.042,2.967" transform="translate(-82.347 -56.667)" fill="#2c84ee"/>
  </g>
</svg>
