<svg xmlns="http://www.w3.org/2000/svg" width="27.412" height="25.173" viewBox="0 0 27.412 25.173">
  <g id="그룹_589" data-name="그룹 589" transform="translate(0)">
    <path id="패스_12" data-name="패스 12" d="M-1825.782-1133.264a3.666,3.666,0,0,0-3.976-4.016q-4.871-.007-9.741,0t-9.741,0a3.658,3.658,0,0,0-3.949,3.949q-.007,5.514,0,11.028c0,2.636,1.457,4.11,4.074,4.119,1.991.007,3.982.021,5.973-.012a.914.914,0,0,1,1.009.674c.6,1.5,1.257,2.986,1.906,4.471.165.376.223.93.749.942.586.012.64-.583.815-.982.652-1.483,1.3-2.97,1.908-4.47a.868.868,0,0,1,.952-.634c2.021.031,4.043.023,6.065.01a3.68,3.68,0,0,0,3.956-3.959Q-1825.776-1127.7-1825.782-1133.264Zm-18.8,6.6a2.173,2.173,0,0,1-3.087,1.82c-.56-.266-.919.164-1.413.092-.531-.078-.816-.109-.8-.76.045-1.772.049-3.547,0-5.319-.021-.729.384-.669.864-.692.538-.025.88.051.808.724a15.926,15.926,0,0,0-.011,1.652C-1845.688-1130.375-1844.358-1128.478-1844.577-1126.667Zm1.992,1.881c-.383.039-.72.044-.7-.532.032-1.19,0-2.382.013-3.573a1.174,1.174,0,0,0-.472-1.113c-.569-.4-.259-1-.257-1.515,0-.257.262-.167.437-.146a2.05,2.05,0,0,1,1.8,1.691,2.48,2.48,0,0,1,.068.453c.007.733,0,1.466,0,2.2h.012c0,.672-.011,1.344,0,2.016C-1841.663-1124.563-1842.213-1124.823-1842.585-1124.786Zm4.674.176a2.572,2.572,0,0,1-2.642-2.489,2.59,2.59,0,0,1,2.7-2.436,2.632,2.632,0,0,1,2.667,2.49A2.643,2.643,0,0,1-1837.911-1124.609Zm8.8.049a2.253,2.253,0,0,1-2.549,2.287c-.373-.015-.623-.114-.536-.523.076-.355-.322-.945.4-1.01.746-.067.951-.529,1.027-1.243a2.847,2.847,0,0,1-1.858.391c-1.465-.329-2.128-1.693-1.616-3.339a2.18,2.18,0,0,1,3.019-1.362c.566.241,1-.237,1.552-.113.392.088.591.137.583.59C-1829.11-1127.442-1829.057-1126-1829.108-1124.56Z" transform="translate(1853.192 1137.282)" fill="#f8f8f8"/>
    <path id="패스_13" data-name="패스 13" d="M-1465.742-964.293c.606.09.983.406.97,1.015a.9.9,0,0,1-.985.956.9.9,0,0,1-.95-.99C-1466.7-963.94-1466.294-964.206-1465.742-964.293Z" transform="translate(1487.289 973.506)" fill="#f8f8f8"/>
    <path id="패스_14" data-name="패스 14" d="M-1756.421-961.231a.924.924,0,0,1-.935.948.866.866,0,0,1-.944-.91.849.849,0,0,1,.915-.928A.9.9,0,0,1-1756.421-961.231Z" transform="translate(1763.353 971.45)" fill="#f8f8f8"/>
    <path id="패스_15" data-name="패스 15" d="M-1584.5-963.292a.943.943,0,0,1,1-.953.926.926,0,0,1,1,.977.932.932,0,0,1-1.05,1.011A.944.944,0,0,1-1584.5-963.292Z" transform="translate(1598.811 973.461)" fill="#f8f8f8"/>
  </g>
</svg>
