<svg xmlns="http://www.w3.org/2000/svg" width="42.909" height="42.654" viewBox="0 0 42.909 42.654">
  <path id="패스_698" data-name="패스 698" d="M-2476.325-1142.933a20.953,20.953,0,0,1-3.55-.873,21.491,21.491,0,0,1-14-15.464,21.266,21.266,0,0,1-.5-6.4,21.465,21.465,0,0,1,15.01-18.939,21.043,21.043,0,0,1,7.95-.914,21.422,21.422,0,0,1,17.541,11.612,20.4,20.4,0,0,1,2.156,6.874,21.022,21.022,0,0,1-4.412,16.189,21.039,21.039,0,0,1-12.576,7.758c-.262.055-.527.09-.79.141-.092.018-.127,0-.118-.1a1.162,1.162,0,0,0,0-.124q0-7.254,0-14.509c0-.2.048-.246.246-.245,1.518.01,3.036,0,4.554.008.161,0,.215-.037.24-.209.147-1.029.313-2.056.472-3.083.142-.92.281-1.84.426-2.759.026-.168-.06-.171-.186-.171-1.834,0-3.668,0-5.5.007-.191,0-.252-.035-.25-.241.011-1.305,0-2.611.009-3.916a3.559,3.559,0,0,1,.336-1.532,2.834,2.834,0,0,1,2.413-1.614c1.067-.12,2.141-.031,3.211-.044.186,0,.241-.045.24-.237-.008-1.621-.005-3.243,0-4.864,0-.142-.018-.212-.188-.237-.78-.111-1.561-.208-2.345-.276a23.831,23.831,0,0,0-2.447-.113,9.071,9.071,0,0,0-3.749.792,6.9,6.9,0,0,0-3.819,4.636,10.406,10.406,0,0,0-.371,2.8q0,2.308,0,4.616c0,.176-.034.229-.221.228-1.662-.009-3.325,0-4.987-.009-.178,0-.243.031-.242.23q.012,2.9,0,5.791c0,.16.039.2.2.2,1.669-.006,3.339,0,5.008-.008.176,0,.241.028.24.228q-.01,7.275,0,14.55Z" transform="translate(2494.427 1185.587)" fill="#8d8d8d"/>
</svg>
