<svg xmlns="http://www.w3.org/2000/svg" width="23.24" height="23.255" viewBox="0 0 23.24 23.255">
  <g id="그룹_588" data-name="그룹 588" transform="translate(0)">
    <path id="패스_8" data-name="패스 8" d="M-3073.658-1181.722c1.724,0,3.451-.066,5.171.015a6.482,6.482,0,0,1,5.867,3.982,6,6,0,0,1,.565,2.608c0,3.339.013,6.679,0,10.019a6.664,6.664,0,0,1-5.641,6.515,7.381,7.381,0,0,1-1.1.084q-4.869.01-9.737,0a6.667,6.667,0,0,1-6.583-5.226,6.029,6.029,0,0,1-.157-1.332c-.013-3.368-.022-6.737,0-10.106a6.657,6.657,0,0,1,5.564-6.47,8.072,8.072,0,0,1,1.231-.1c1.608-.011,3.216,0,4.825,0Zm-.019,21.142q2.5,0,5,0a4.866,4.866,0,0,0,.649-.042,4.433,4.433,0,0,0,3.838-4.381q0-5.053,0-10.106a4.211,4.211,0,0,0-.686-2.341,4.317,4.317,0,0,0-3.765-2.08c-3.354-.021-6.708-.007-10.062-.005a4.55,4.55,0,0,0-.455.032,4.436,4.436,0,0,0-3.988,4.4q0,5.053,0,10.106a4.1,4.1,0,0,0,.054.692,4.438,4.438,0,0,0,4.415,3.726Q-3076.176-1160.577-3073.677-1160.58Z" transform="translate(3085.29 1181.747)" fill="#f8f8f8"/>
    <path id="패스_9" data-name="패스 9" d="M-2950.775-1051.494a6.04,6.04,0,0,1,6.02,6.052,6.043,6.043,0,0,1-6.084,6.011,6.047,6.047,0,0,1-5.987-6.064A6.04,6.04,0,0,1-2950.775-1051.494Zm-.024,9.936a3.91,3.91,0,0,0,3.92-3.9,3.926,3.926,0,0,0-3.9-3.921,3.925,3.925,0,0,0-3.919,3.9A3.91,3.91,0,0,0-2950.8-1041.559Z" transform="translate(2962.412 1057.157)" fill="#f8f8f8"/>
    <path id="패스_10" data-name="패스 10" d="M-2705.588-1089.026a1.41,1.41,0,0,1,1.406,1.411,1.414,1.414,0,0,1-1.4,1.4,1.408,1.408,0,0,1-1.414-1.4A1.4,1.4,0,0,1-2705.588-1089.026Z" transform="translate(2723.444 1093.057)" fill="#f8f8f8"/>
  </g>
</svg>
