<svg xmlns="http://www.w3.org/2000/svg" width="28.684" height="20.226" viewBox="0 0 28.684 20.226">
  <path id="패스_699" data-name="패스 699" d="M-3840.759-1083.668a34.2,34.2,0,0,0-.442-4.761,3.652,3.652,0,0,0-2.948-3.141,15.564,15.564,0,0,0-2-.25c-2.759-.214-5.523-.26-8.289-.283-1.83-.015-3.661.017-5.491.078-1.879.063-3.758.13-5.625.377a3.665,3.665,0,0,0-3.335,3.028,17.335,17.335,0,0,0-.349,2.5,48.41,48.41,0,0,0-.14,5.788,34.12,34.12,0,0,0,.443,4.762,3.649,3.649,0,0,0,2.947,3.141,15.87,15.87,0,0,0,2.057.255c2.953.225,5.911.255,9.276.289,1.179-.024,2.766-.049,4.352-.09a54.481,54.481,0,0,0,5.717-.375,3.664,3.664,0,0,0,3.335-3.029,17.13,17.13,0,0,0,.348-2.5A48.414,48.414,0,0,0-3840.759-1083.668Zm-17.234,5.943v-8.543l7.508,4.271Z" transform="translate(3869.408 1092.107)" fill="#f8f8f8"/>
</svg>
