<svg id="그룹_106" data-name="그룹 106" xmlns="http://www.w3.org/2000/svg" width="108.4" height="144.101" viewBox="0 0 108.4 144.101">
  <path id="패스_120" data-name="패스 120" d="M578.34,931.78a.467.467,0,0,1-.262.081l-.106-.02a.467.467,0,0,1-.157-.06l-2.463-1.651-2.07.137v1.272l1.723-.114,2.1,1.41a1.59,1.59,0,0,0,.54.231,1.471,1.471,0,0,0,.429.063,1.732,1.732,0,0,0,.971-.3l2.026-1.367,1.795.133v-1.272l-2.14-.158Z" transform="translate(-528.532 -857.526)"/>
  <path id="패스_121" data-name="패스 121" d="M493.3,646.263l-1.366-2.026.182-2.46a1.732,1.732,0,0,0-.961-1.685l-2.247-1.116L487.8,636.7a1.734,1.734,0,0,0-1.678-.974l-2.5.166-2.1-1.411a1.6,1.6,0,0,0-.54-.231,1.668,1.668,0,0,0-1.4.234l-2.026,1.367-2.46-.182a1.734,1.734,0,0,0-1.686.961l-1.116,2.247-2.277,1.108a1.733,1.733,0,0,0-.973,1.678l.165,2.5-1.41,2.1a1.732,1.732,0,0,0,0,1.94l1.366,2.026-.182,2.459a1.731,1.731,0,0,0,.96,1.686l2.247,1.116,1.109,2.277a1.729,1.729,0,0,0,1.189.936v-1.421a.438.438,0,0,1-.048-.07l-1.3-2.666-2.634-1.308a.468.468,0,0,1-.259-.455l.215-2.9-1.612-2.391a.468.468,0,0,1,0-.524l1.651-2.462-.194-2.935a.467.467,0,0,1,.263-.453l2.666-1.3,1.309-2.635a.482.482,0,0,1,.455-.259l2.9.214,2.39-1.611a.467.467,0,0,1,.262-.081l.106.021a.48.48,0,0,1,.156.058l2.463,1.652,2.935-.195a.476.476,0,0,1,.453.263l1.3,2.666,2.635,1.308a.469.469,0,0,1,.259.455l-.215,2.9,1.612,2.392h0a.468.468,0,0,1,0,.523l-1.651,2.462.195,2.936a.466.466,0,0,1-.263.452l-2.665,1.3-1.253,2.522v1.57a1.722,1.722,0,0,0,1.081-.893l1.116-2.247,2.277-1.108a1.733,1.733,0,0,0,.974-1.678l-.166-2.5,1.41-2.1a1.731,1.731,0,0,0,0-1.94" transform="translate(-431.004 -584.682)"/>
  <path id="패스_122" data-name="패스 122" d="M558.29,931.562v-1.272l-.864.057a.474.474,0,0,1-.406-.193v1.421a1.762,1.762,0,0,0,.489.039Z" transform="translate(-513.54 -857.548)"/>
  <path id="패스_123" data-name="패스 123" d="M697.321,928.724a.465.465,0,0,1-.455.259l-.759-.056V930.2l.664.049a1.782,1.782,0,0,0,.6-.067v-1.57Z" transform="translate(-641.769 -856.126)"/>
  <path id="패스_124" data-name="패스 124" d="M519.579,696.017a9.746,9.746,0,1,1,9.746-9.746,9.757,9.757,0,0,1-9.746,9.746m0-18.223a8.477,8.477,0,1,0,8.477,8.477,8.487,8.487,0,0,0-8.477-8.477" transform="translate(-470.035 -623.716)"/>
  <path id="패스_125" data-name="패스 125" d="M569.734,767.471H567.1a.952.952,0,0,1-.951-.95V760.4a.952.952,0,0,1,.951-.95h2.636a.952.952,0,0,1,.951.95v6.121a.952.952,0,0,1-.951.95m-2.317-1.269h2v-5.482h-2Z" transform="translate(-521.954 -700.168)"/>
  <path id="패스_126" data-name="패스 126" d="M614.618,727.27h-.026c-.869-.01-3.983,0-5.323,0h0a1.256,1.256,0,0,1-1.256-1.259v-8.9a1.261,1.261,0,0,1,.409-.929,1.276,1.276,0,0,1,.968-.327,2.309,2.309,0,0,1,1.922,1.353,6.369,6.369,0,0,1,.552,1.85,2.355,2.355,0,0,0,.116.505,9.828,9.828,0,0,0,1.309-.016,5.337,5.337,0,0,1,1.6.059,1.667,1.667,0,0,1,1.256,1.841c.025.769,0,3.48,0,3.883a1.962,1.962,0,0,1-.367,1.453,1.455,1.455,0,0,1-1.156.492m-5.973-1.26h0ZM612.58,726c.877,0,1.656,0,2.028.005.057,0,.165,0,.2-.048a.791.791,0,0,0,.07-.482l-.009-.055v-.056c0-.031.027-3.088,0-3.875-.019-.563-.045-.571-.365-.671a6.207,6.207,0,0,0-1.16,0,3.9,3.9,0,0,1-2.066-.2,1.739,1.739,0,0,1-.671-1.347,5.175,5.175,0,0,0-.443-1.508,1.043,1.043,0,0,0-.893-.643L609.28,726c.774,0,2.124,0,3.3,0" transform="translate(-560.55 -659.968)"/>
  <rect id="사각형_2218" data-name="사각형 2218" width="108.4" height="144.101" transform="translate(0 0)" fill="none"/>
</svg>
