<svg xmlns="http://www.w3.org/2000/svg" width="30.273" height="25.937" viewBox="0 0 30.273 25.937">
  <g id="그룹_60" data-name="그룹 60" transform="translate(-850.234 -1251.977)">
    <path id="합치기_2" data-name="합치기 2" d="M0,14.791V5A5,5,0,0,1,5,0H23.272a5,5,0,0,1,5,5v9.79a5,5,0,0,1-5,5H5a5.007,5.007,0,0,1-1.238-.154L0,23.937Z" transform="translate(851.234 1252.977)" fill="#fff" stroke="#707070" stroke-linejoin="round" stroke-width="2"/>
    <ellipse id="타원_9" data-name="타원 9" cx="1.196" cy="1.196" rx="1.196" ry="1.196" transform="translate(857.593 1262.146)" fill="#707070" stroke="#707070" stroke-width="1"/>
    <ellipse id="타원_10" data-name="타원 10" cx="1.196" cy="1.196" rx="1.196" ry="1.196" transform="translate(864.335 1262.146)" fill="#707070" stroke="#707070" stroke-width="1"/>
    <ellipse id="타원_11" data-name="타원 11" cx="1.196" cy="1.196" rx="1.196" ry="1.196" transform="translate(871.077 1262.146)" fill="#707070" stroke="#707070" stroke-width="1"/>
  </g>
</svg>
